<?xml version="1.0" encoding="iso-8859-1"?>
<!-- Generator: Adobe Illustrator 19.0.0, SVG Export Plug-In . SVG Version: 6.00 Build 0)  -->
<svg version="1.1" id="Layer_1" xmlns="http://www.w3.org/2000/svg" xmlns:xlink="http://www.w3.org/1999/xlink" x="0px" y="0px"
	 viewBox="0 0 512 512" style="enable-background:new 0 0 512 512;" xml:space="preserve">
<path style="fill:#F4B2B0;" d="M213.694,99.883c25.257,0,36.589,14.156,41.047,22.472c0.56,1.045,2.08,1.043,2.639-0.002
	c4.443-8.316,15.712-22.469,40.968-22.469c28.77,0,54.077,19.639,54.077,55.501c0,14.512-2.958,26.944-11.165,40.818
	c-16.727,28.274-71.83,64.928-83.149,72.151c-1.252,0.798-2.835,0.801-4.089,0.005c-11.328-7.188-66.442-43.66-83.299-72.155
	c-8.208-13.875-11.145-26.306-11.145-40.818C159.577,119.523,184.925,99.883,213.694,99.883z"/>
<g>
	<path style="fill:#B3404A;" d="M256.063,284.092c-3.598,0-7.108-1.02-10.152-2.951c-11.371-7.215-69.056-44.841-88.217-77.231
		c-9.166-15.493-13.254-30.46-13.254-48.527c0-46.376,34.84-70.64,69.256-70.64c20.095,0,33.611,7.288,42.353,15.172
		c8.727-7.884,22.224-15.172,42.299-15.172c34.397,0,69.215,24.264,69.215,70.64c0,18.042-4.094,33.008-13.275,48.527
		c-19.016,32.142-76.67,69.951-88.033,77.204C263.202,283.061,259.678,284.092,256.063,284.092z M213.694,115.022
		c-17.982,0-38.979,10.57-38.979,40.363c0,12.67,2.617,22.263,9.035,33.11c11.864,20.054,49.522,48.061,72.295,63.133
		c22.775-15.151,60.415-43.239,72.186-63.133c6.431-10.873,9.054-20.466,9.054-33.11c0-29.793-20.975-40.363-38.938-40.363
		c-16.435,0-24.089,7.866-27.616,14.466c-2.898,5.423-8.52,8.79-14.671,8.79c-6.148,0-11.764-3.364-14.665-8.776
		C237.856,122.9,230.173,115.022,213.694,115.022z"/>
	<path style="fill:#B3404A;" d="M433.228,506.767H78.772C35.338,506.767,0,471.428,0,427.994V84.006
		C0,40.572,35.338,5.233,78.772,5.233h354.455C476.662,5.233,512,40.572,512,84.006v26.658c0,8.36-6.779,15.139-15.139,15.139
		c-8.36,0-15.139-6.779-15.139-15.139V84.006c0-26.741-21.754-48.495-48.495-48.495H78.772c-26.741,0-48.495,21.754-48.495,48.495
		v343.988c0,26.741,21.754,48.495,48.495,48.495h354.455c26.741,0,48.495-21.754,48.495-48.495V195.443
		c0-8.36,6.779-15.139,15.139-15.139c8.36,0,15.139,6.779,15.139,15.139v232.551C512,471.428,476.662,506.767,433.228,506.767z"/>
	<path style="fill:#B3404A;" d="M123.124,334.714c0-4.11,4.368-6.164,8.735-6.164h44.565c4.239,0,6.036,4.496,6.036,8.606
		c0,4.752-2.181,8.862-6.036,8.862H143.16v21.706h19.394c3.853,0,6.036,3.726,6.036,7.836c0,3.467-1.798,7.577-6.036,7.577H143.16
		v33.137c0,4.11-5.009,6.164-10.019,6.164s-10.017-2.054-10.017-6.164V334.714z"/>
	<path style="fill:#B3404A;" d="M189.273,334.587c0-3.211,2.44-6.037,6.164-6.037h26.587c17.596,0,31.596,6.551,31.596,27.486
		c0,14.385-6.55,22.605-15.541,26.072l15.67,28.385c0.513,0.771,0.642,1.67,0.642,2.31c0,5.009-6.679,10.403-12.586,10.403
		c-2.568,0-5.009-1.028-6.422-3.724l-17.596-34.163h-8.476v30.952c0,4.11-5.009,6.164-10.019,6.164
		c-5.009,0-10.017-2.054-10.017-6.164v-81.684H189.273z M209.31,346.015v23.889h12.713c7.192,0,11.56-2.954,11.56-11.944
		s-4.367-11.946-11.56-11.946H209.31V346.015z"/>
	<path style="fill:#B3404A;" d="M284.324,367.721h19.265c3.853,0,6.036,3.726,6.036,7.836c0,3.467-1.798,7.577-6.036,7.577h-19.265
		v21.834h34.419c3.854,0,6.036,4.11,6.036,8.862c0,4.11-1.798,8.606-6.036,8.606h-45.722c-4.367,0-8.735-2.054-8.735-6.164v-81.556
		c0-4.11,4.367-6.164,8.735-6.164h45.722c4.239,0,6.036,4.496,6.036,8.606c0,4.752-2.181,8.862-6.036,8.862h-34.419L284.324,367.721
		L284.324,367.721z"/>
	<path style="fill:#B3404A;" d="M353.553,367.721h19.265c3.853,0,6.036,3.726,6.036,7.836c0,3.467-1.798,7.577-6.036,7.577h-19.265
		v21.834h34.419c3.854,0,6.036,4.11,6.036,8.862c0,4.11-1.798,8.606-6.036,8.606H342.25c-4.367,0-8.735-2.054-8.735-6.164v-81.556
		c0-4.11,4.367-6.164,8.735-6.164h45.722c4.239,0,6.036,4.496,6.036,8.606c0,4.752-2.181,8.862-6.036,8.862h-34.419V367.721z"/>
</g>
<g>
</g>
<g>
</g>
<g>
</g>
<g>
</g>
<g>
</g>
<g>
</g>
<g>
</g>
<g>
</g>
<g>
</g>
<g>
</g>
<g>
</g>
<g>
</g>
<g>
</g>
<g>
</g>
<g>
</g>
</svg>
